{"title":"The Family Stone (2005) DVDRip XviD AC3 peaSoup","uid":8981536,"size":1377961598,"categoryP":"video","categoryS":"movies","magnet":"?xt=urn:btih:7edb178a4e8d31b25f7830103759453d7d0330c9&amp;dn=The+Family+Stone+%282005%29+DVDRip+XviD+AC3+peaSoup&amp;tr=udp%3A%2F%2Ftracker.openbittorrent.com%3A80&amp;tr=udp%3A%2F%2Fopen.demonii.com%3A1337&amp;tr=udp%3A%2F%2Ftracker.coppersurfer.tk%3A6969&amp;tr=udp%3A%2F%2Fexodus.desync.com%3A6969","seeders":2,"leechers":0,"uploader":"peaSoup","files":-1,"time":1380578721,"description":"Storyline\n\nThe Stone family unites in common cause when their favorite son brings his uptight girlfriend home for the Christmas holiday, with plans of proposing. Overwhelmed by the hostile reception, she begs her sister to join her for emotional support, triggering further complications.                                                   &lt;a href=&quot; http://imageshack.us/a/img833/1562/gea7.jpg&quot; rel=&quot;nofollow&quot; target=&quot;_NEW&quot;&gt; http://imageshack.us/a/img833/1562/gea7.jpg&lt;/a&gt;                                         &lt;a href=&quot; http://imageshack.us/a/img822/2119/8r63.jpg&quot; rel=&quot;nofollow&quot; target=&quot;_NEW&quot;&gt; http://imageshack.us/a/img822/2119/8r63.jpg&lt;/a&gt;                                         &lt;a href=&quot; http://imageshack.us/a/img844/3051/yn1x.jpg&quot; rel=&quot;nofollow&quot; target=&quot;_NEW&quot;&gt; http://imageshack.us/a/img844/3051/yn1x.jpg&lt;/a&gt;                                         &lt;a href=&quot; http://imageshack.us/a/img855/2755/vtbk.jpg&quot; rel=&quot;nofollow&quot; target=&quot;_NEW&quot;&gt; http://imageshack.us/a/img855/2755/vtbk.jpg&lt;/a&gt;                                         &lt;a href=&quot; http://imageshack.us/a/img94/7091/lhrn.jpg&quot; rel=&quot;nofollow&quot; target=&quot;_NEW&quot;&gt; http://imageshack.us/a/img94/7091/lhrn.jpg&lt;/a&gt;                                           Format                                   : AVI\nFormat/Info                              : Audio Video Interleave\nFormat profile                           : OpenDML\nFile size                                : 1.28 GiB\nDuration                                 : 1h 39mn\nOverall bit rate                         : 1 855 Kbps\nMovie name                               : The Family Stone (2005) DVDRip XviD AC3 peaSoup\nWriting application                      : Lavf53.21.0\nOriginal source form/Name                : FAMILY_STONE_SE\n\nVideo\nID                                       : 0\nFormat                                   : MPEG-4 Visual\nFormat profile                           : Advanced Simple@L5\nFormat settings, BVOP                    : 2\nFormat settings, QPel                    : No\nFormat settings, GMC                     : No warppoints\nFormat settings, Matrix                  : Default (H.263)\nMuxing mode                              : Packed bitstream\nCodec ID                                 : XVID\nCodec ID/Hint                            : XviD\nDuration                                 : 1h 39mn\nBit rate                                 : 1 395 Kbps\nWidth                                    : 720 pixels\nHeight                                   : 388 pixels\nDisplay aspect ratio                     : 1.85:1\nFrame rate                               : 25.000 fps\nColor space                              : YUV\nChroma subsampling                       : 4:2:0\nBit depth                                : 8 bits\nScan type                                : Progressive\nCompression mode                         : Lossy\nBits/(Pixel*Frame)                       : 0.200\nStream size                              : 988 MiB (75%)\nWriting library                          : XviD 1.2.1 (UTC 2008-12-04)\n\nAudio\nID                                       : 1\nFormat                                   : AC-3\nFormat/Info                              : Audio Coding 3\nMode extension                           : CM (complete main)\nFormat settings, Endianness              : Big\nCodec ID                                 : 2000\nDuration                                 : 1h 38mn\nBit rate mode                            : Constant\nBit rate                                 : 448 Kbps\nChannel(s)                               : 6 channels\nChannel positions                        : Front: L C R, Side: L R, LFE\nSampling rate                            : 48.0 KHz\nBit depth                                : 16 bits\nCompression mode                         : Lossy\nStream size                              : 317 MiB (24%)\nAlignment                                : Aligned on interleaves\nInterleave, duration                     : 32 ms (0.80 video frame)\n\n","torrent":{"xt":"urn:btih:7edb178a4e8d31b25f7830103759453d7d0330c9","amp;dn":"The+Family+Stone+%282005%29+DVDRip+XviD+AC3+peaSoup","amp;tr":["udp%3A%2F%2Ftracker.openbittorrent.com%3A80","udp%3A%2F%2Fopen.demonii.com%3A1337","udp%3A%2F%2Ftracker.coppersurfer.tk%3A6969","udp%3A%2F%2Fexodus.desync.com%3A6969"],"infoHash":"7edb178a4e8d31b25f7830103759453d7d0330c9","infoHashBuffer":{"type":"Buffer","data":[126,219,23,138,78,141,49,178,95,120,48,16,55,89,69,61,125,3,48,201]},"announce":[],"urlList":[]}}